# xmcd CD database file
#
# Track frame offsets:
#	150
#	17015
#	34992
#	45926
#	64693
#
# Disc length: 1048 seconds
#
# Revision: 0
# Processed by: cddbd v1.5.1PL0 Copyright (c) Steve Scherf et al.
# Submitted via: CDex 1.51
#
DISCID=35041605
DTITLE=カミナリグモ - まるで鏡
DYEAR=2004
DGENRE=Pop
TTITLE0=まるで鏡
TTITLE1=ビスケットは一つ
TTITLE2=向かい風
TTITLE3=キミのこと考えてる
TTITLE4=まるで鏡ーアカペラバージョン
EXTD=YEAR: 2004
EXTT0=
EXTT1=
EXTT2=
EXTT3=
EXTT4=
PLAYORDER=
